<?xml version="1.0" standalone="no"?>
<!DOCTYPE svg PUBLIC "-//W3C//DTD SVG 20010904//EN"
 "http://www.w3.org/TR/2001/REC-SVG-20010904/DTD/svg10.dtd">
<svg version="1.0" xmlns="http://www.w3.org/2000/svg"
 width="683.000000pt" height="683.000000pt" viewBox="0 0 683.000000 683.000000"
 preserveAspectRatio="xMidYMid meet">

<g transform="translate(0.000000,683.000000) scale(0.100000,-0.100000)"
fill="teal" stroke="none">
<path d="M3990 6265 l0 -285 565 0 565 0 0 285 0 285 -565 0 -565 0 0 -285z"/>
<path d="M3420 5690 l0 -280 280 0 280 0 0 143 c0 79 3 205 7 280 l6 137 -286
0 -287 0 0 -280z"/>
<path d="M5130 5690 l0 -280 280 0 280 0 0 280 0 280 -280 0 -280 0 0 -280z"/>
<path d="M2850 5125 l0 -275 280 0 280 0 0 275 0 275 -280 0 -280 0 0 -275z"/>
<path d="M4550 5125 l0 -275 285 0 285 0 0 275 0 275 -285 0 -285 0 0 -275z"/>
<path d="M2290 4555 l0 -285 275 0 275 0 0 285 0 285 -275 0 -275 0 0 -285z"/>
<path d="M3990 4555 l0 -285 -285 0 -285 0 0 -285 0 -285 219 0 c120 0 246 3
280 6 l61 7 0 136 c0 75 3 200 7 279 l6 142 279 0 278 0 0 285 0 285 -280 0
-280 0 0 -285z"/>
<path d="M1710 3984 l0 -286 274 4 c151 1 278 7 282 11 5 4 10 131 12 282 l4
275 -286 0 -286 0 0 -286z"/>
<path d="M1140 3415 l0 -275 285 0 285 0 0 275 0 275 -285 0 -285 0 0 -275z"/>
<path d="M2850 3415 l0 -275 280 0 280 0 0 275 0 275 -280 0 -280 0 0 -275z"/>
<path d="M1710 2850 l0 -280 285 0 285 0 0 198 c0 108 -3 234 -7 280 l-6 82
-278 0 -279 0 0 -280z"/>
<path d="M3420 2850 l0 -280 287 0 286 0 -6 137 c-4 75 -7 201 -7 280 l0 143
-280 0 -280 0 0 -280z"/>
<path d="M2290 2275 l0 -285 275 0 275 0 0 285 0 285 -275 0 -275 0 0 -285z"/>
<path d="M3990 2275 l0 -285 280 0 280 0 0 -280 0 -280 285 0 285 0 0 280 0
280 -285 0 -285 0 0 285 0 285 -280 0 -280 0 0 -285z"/>
<path d="M2850 1710 l0 -280 280 0 280 0 0 280 0 280 -280 0 -280 0 0 -280z"/>
<path d="M3420 1145 l0 -285 285 0 285 0 -6 278 c-4 152 -7 278 -8 278 -1 1
-126 4 -278 8 l-278 6 0 -285z"/>
<path d="M5130 1147 l0 -287 280 0 280 0 0 280 0 280 -128 0 c-71 0 -197 3
-280 7 l-152 6 0 -286z"/>
<path d="M3990 570 l0 -280 565 0 565 0 0 280 0 280 -565 0 -565 0 0 -280z"/>
</g>
</svg>
